<svg width="51" height="50" viewBox="0 0 51 50" fill="none" xmlns="http://www.w3.org/2000/svg">
<path d="M1.93463 22.7731V18.7122H8.24891V18.0875H1.20605V28.5H8.43106V27.8752H1.93463V23.3979H7.74802V22.7731H1.93463ZM12.086 24.0821L9.86993 20.9435H9.05029L11.661 24.5581L8.79225 28.5H9.65743L12.086 24.9895L14.5146 28.5H15.3798L12.511 24.5581L15.1065 20.9435H14.3021L12.086 24.0821ZM16.5727 20.9435V31.2519H17.2406V27.2356C17.7718 28.3215 18.7129 28.7975 19.8816 28.7975C22.3406 28.7975 23.2209 26.715 23.2209 24.6176C23.2209 22.5202 22.3254 20.646 19.912 20.646C18.8343 20.646 17.7566 21.1071 17.2709 22.1484H17.2406V20.9435H16.5727ZM17.2102 24.7664C17.2102 22.5649 18.2272 21.1666 19.9424 21.1666C21.612 21.1666 22.5227 22.5649 22.5227 24.6027C22.5227 27.7265 20.9593 28.2769 19.912 28.2769C18.6066 28.2769 17.2102 27.3249 17.2102 24.7664ZM28.8569 20.7947H28.5078C27.248 20.7947 26.2917 21.5682 25.9274 22.5054H25.8971V20.9435H25.2292V28.5H25.8971V24.8854C25.8971 21.8211 27.5364 21.4939 28.523 21.4641C28.6292 21.4641 28.7507 21.4641 28.8569 21.4641V20.7947ZM35.3536 26.3134C35.1563 27.3695 34.3215 28.2769 32.834 28.2769C30.4357 28.2769 29.9652 26.1051 29.95 24.7961H36.1125C36.1581 20.9881 33.9723 20.646 32.8036 20.646C29.3429 20.646 29.2518 23.9185 29.2518 24.6176C29.2518 28.7826 32.1661 28.7975 32.8036 28.7975C35.0956 28.7975 35.8393 27.2802 36.0215 26.3134H35.3536ZM29.95 24.2755C29.9804 23.1747 30.4661 21.1666 32.7581 21.1666C34.9893 21.1666 35.3991 23.145 35.3991 24.2755H29.95ZM37.5183 26.3431C37.5183 27.6075 38.429 28.7975 40.4478 28.7975C42.5728 28.7975 43.438 27.8009 43.438 26.4919C43.438 25.049 42.3148 24.7217 40.7969 24.3647C39.3701 24.0226 38.4442 23.8887 38.4442 22.6987C38.4442 21.8955 38.9755 21.1666 40.4174 21.1666C42.1174 21.1666 42.4969 22.2227 42.5273 22.8772H43.2103C43.1496 22.0591 42.7246 20.646 40.3871 20.646C37.9433 20.646 37.746 22.1632 37.746 22.669C37.746 24.097 38.7023 24.5284 40.0532 24.8407C40.3264 24.9002 40.6148 24.9597 40.888 25.0341C41.8898 25.287 42.7398 25.5547 42.7398 26.5662C42.7398 27.2951 42.2692 28.2769 40.5389 28.2769C38.9755 28.2769 38.2014 27.3546 38.2014 26.3431H37.5183ZM44.6481 26.3431C44.6481 27.6075 45.5588 28.7975 47.5775 28.7975C49.7025 28.7975 50.5677 27.8009 50.5677 26.4919C50.5677 25.049 49.4445 24.7217 47.9266 24.3647C46.4998 24.0226 45.574 23.8887 45.574 22.6987C45.574 21.8955 46.1052 21.1666 47.5472 21.1666C49.2472 21.1666 49.6266 22.2227 49.657 22.8772H50.34C50.2793 22.0591 49.8543 20.646 47.5168 20.646C45.0731 20.646 44.8757 22.1632 44.8757 22.669C44.8757 24.097 45.832 24.5284 47.1829 24.8407C47.4561 24.9002 47.7445 24.9597 48.0177 25.0341C49.0195 25.287 49.8695 25.5547 49.8695 26.5662C49.8695 27.2951 49.399 28.2769 47.6686 28.2769C46.1052 28.2769 45.3311 27.3546 45.3311 26.3431H44.6481Z" fill="#020438"/>
</svg>
