<svg width="60" height="60" viewBox="0 0 60 60" fill="none" xmlns="http://www.w3.org/2000/svg">
<g clip-path="url(#clip0_8_275)">
<path d="M40.8186 24.9062C38.1853 13.2813 31.9603 9.46042 31.2915 8C30.7082 7.17917 30.1874 6.0125 29.7603 5C29.6853 6.03125 29.6457 6.42708 28.6707 7.46667C27.1645 8.64583 19.4249 15.1375 18.7957 28.3417C18.2082 40.6583 27.6915 47.9979 28.979 48.9333L29.1249 49.0375C29.393 51.0203 29.6222 53.0082 29.8124 55H30.8145C31.0518 52.8503 31.4065 50.7152 31.877 48.6042C32.7457 47.9875 33.1353 47.6396 33.6478 47.1604C36.0748 44.9152 38.0036 42.1856 39.3095 39.1482C40.6154 36.1108 41.2693 32.8331 41.229 29.5271C41.2499 27.8312 41.0145 26.0646 40.8186 24.9062ZM29.702 41.9792C29.702 41.9792 29.702 24.7062 30.2749 24.7083C30.7186 24.7083 31.2957 46.9896 31.2957 46.9896C30.502 46.8958 29.702 43.3229 29.702 41.9792Z" fill="#020438"/>
</g>
<defs>
<clipPath id="clip0_8_275">
<rect width="50" height="50" fill="white" transform="translate(5 5)"/>
</clipPath>
</defs>
</svg>
