<svg width="51" height="50" viewBox="0 0 51 50" fill="none" xmlns="http://www.w3.org/2000/svg">
<g clip-path="url(#clip0_8_398)">
<path d="M25.3332 49.9083C24.6207 49.9083 23.9582 49.7229 23.3394 49.4021L17.029 45.7813C16.0811 45.2771 16.5561 45.0938 16.8415 45.0021C18.1207 44.5896 18.3582 44.4979 19.6873 43.7625C19.829 43.6708 20.0207 43.7167 20.1623 43.8083L25.0019 46.6063C25.1894 46.6979 25.429 46.6979 25.5707 46.6063L44.5019 36.0146C44.6894 35.9229 44.7852 35.7396 44.7852 35.5104V14.3729C44.7852 14.1438 44.6915 13.9604 44.5019 13.8688L25.5707 3.32501C25.3811 3.23335 25.1436 3.23335 25.0019 3.32501L6.07067 13.8688C5.88109 13.9604 5.78525 14.1896 5.78525 14.3729V35.5104C5.78525 35.6938 5.88109 35.9229 6.07067 36.0146L11.2415 38.9042C14.0415 40.2792 15.7957 38.675 15.7957 37.0708V16.2083C15.7957 15.9333 16.0332 15.6583 16.3665 15.6583H18.7853C19.0707 15.6583 19.354 15.8875 19.354 16.2083V37.0688C19.354 40.6917 17.3144 42.8 13.7561 42.8C12.6644 42.8 11.8103 42.8 9.3915 41.6542L4.41025 38.9042C3.81001 38.5741 3.30876 38.0898 2.95827 37.5012C2.60778 36.9127 2.42075 36.2413 2.4165 35.5563V14.4188C2.4165 13.0438 3.17484 11.7604 4.41025 11.0729L23.3415 0.479179C23.9578 0.163109 24.6405 -0.0017395 25.3332 -0.0017395C26.0258 -0.0017395 26.7085 0.163109 27.3248 0.479179L46.2582 11.0708C47.4915 11.7583 48.2498 13.0417 48.2498 14.4167V35.5542C48.2498 36.9292 47.4915 38.2125 46.2582 38.9021L27.3248 49.4917C26.6962 49.7642 26.0183 49.9046 25.3332 49.9042V49.9083ZM31.1686 35.3729C22.8665 35.3729 21.1582 31.7063 21.1582 28.5875C21.1582 28.3125 21.3957 28.0375 21.7269 28.0375H24.1936C24.479 28.0375 24.7144 28.2208 24.7144 28.4958C25.0957 30.925 26.1873 32.1167 31.2165 32.1167C35.2019 32.1167 36.9102 31.2458 36.9102 29.1833C36.9102 27.9917 36.4352 27.1208 30.2207 26.525C25.0478 26.0188 21.8228 24.9208 21.8228 20.9313C21.8228 17.2167 25.0478 15.0146 30.4582 15.0146C36.5311 15.0146 39.5207 17.0333 39.8998 21.4354C39.8956 21.5845 39.8454 21.7285 39.7561 21.8479C39.6623 21.9396 39.5207 22.0313 39.3769 22.0313H36.9102C36.7904 22.0284 36.6748 21.9865 36.5808 21.9121C36.4869 21.8377 36.4197 21.7347 36.3894 21.6188C35.8186 19.0979 34.3477 18.2708 30.4582 18.2708C26.0915 18.2708 25.5707 19.7375 25.5707 20.8375C25.5707 22.1688 26.1873 22.5813 32.0707 23.3146C37.9061 24.0479 40.6582 25.1021 40.6582 29.0438C40.6102 33.0813 37.1957 35.3729 31.1686 35.3729Z" fill="#020438"/>
</g>
<defs>
<clipPath id="clip0_8_398">
<rect width="50" height="50" fill="white" transform="translate(0.333252)"/>
</clipPath>
</defs>
</svg>
