<svg width="61" height="60" viewBox="0 0 61 60" fill="none" xmlns="http://www.w3.org/2000/svg">
<path d="M31 0.9375C14.9805 0.9375 1.9375 13.9688 1.9375 30C1.9375 46.0195 14.9805 59.0625 31 59.0625C47.0195 59.0625 60.0625 46.0195 60.0625 30C60.0625 13.9688 47.0195 0.9375 31 0.9375ZM4.86719 30C4.86719 26.2148 5.67578 22.6172 7.12891 19.3711L19.5977 53.5195C10.8789 49.2773 4.86719 40.3359 4.86719 30ZM31 56.1328C28.4336 56.1328 25.9609 55.7578 23.6172 55.0664L31.457 32.2852L39.4844 54.293C39.543 54.4219 39.6016 54.5391 39.6719 54.6562C36.9648 55.6055 34.0469 56.1328 31 56.1328ZM34.5977 17.7539C36.168 17.6719 37.5859 17.5078 37.5859 17.5078C38.9922 17.3438 38.8281 15.2695 37.4219 15.3516C37.4219 15.3516 33.1914 15.6797 30.4609 15.6797C27.8945 15.6797 23.582 15.3516 23.582 15.3516C22.1758 15.2695 22.0117 17.4258 23.418 17.5078C23.418 17.5078 24.7539 17.6719 26.1602 17.7539L30.2266 28.9102L24.5078 46.0547L14.9922 17.7539C16.5625 17.6719 17.9805 17.5078 17.9805 17.5078C19.3867 17.3438 19.2227 15.2695 17.8164 15.3516C17.8164 15.3516 13.5859 15.6797 10.8555 15.6797C10.3633 15.6797 9.78906 15.668 9.16797 15.6445C13.8438 8.55469 21.8711 3.86719 31 3.86719C37.7969 3.86719 43.9961 6.46875 48.6484 10.7227C48.5312 10.7109 48.4258 10.6992 48.3086 10.6992C45.7422 10.6992 43.9258 12.9375 43.9258 15.3398C43.9258 17.4961 45.168 19.3125 46.4922 21.4688C47.4883 23.2031 48.6484 25.4414 48.6484 28.6758C48.6484 30.9141 47.793 33.5039 46.6562 37.125L44.0547 45.832L34.5977 17.7539ZM44.1367 52.582L52.1172 29.5078C53.6055 25.7812 54.1094 22.8047 54.1094 20.1445C54.1094 19.1836 54.0508 18.293 53.9336 17.4609C55.9727 21.1875 57.1328 25.4531 57.1328 30C57.1328 39.6445 51.9062 48.0586 44.1367 52.582Z" fill="#020438"/>
</svg>
