<svg width="361" height="265" viewBox="0 0 361 265" fill="none" xmlns="http://www.w3.org/2000/svg" style="opacity:60%">
<path d="M360.502 249.562L0.262207 249.562V249.752L360.502 249.752V249.562Z" fill="#EBEBEB"/>
<path d="M324.406 261.782H300.544V261.972H324.406V261.782Z" fill="#EBEBEB"/>
<path d="M238.899 263.848H232.638V264.038H238.899V263.848Z" fill="#EBEBEB"/>
<path d="M299.823 254.734H285.997V254.924H299.823V254.734Z" fill="#EBEBEB"/>
<path d="M69.1761 256.01H38.0586V256.2H69.1761V256.01Z" fill="#EBEBEB"/>
<path d="M80.1561 256.01H75.5955V256.2H80.1561V256.01Z" fill="#EBEBEB"/>
<path d="M162.478 259.215H94.9836V259.405H162.478V259.215Z" fill="#EBEBEB"/>
<path d="M171.016 215.688H31.8985C30.8086 215.686 29.7641 215.229 28.9941 214.416C28.2242 213.603 27.7917 212.501 27.7917 211.352L27.7917 5.20218C27.8012 4.05992 28.2379 2.96773 29.0068 2.16285C29.7757 1.35797 30.8149 0.905399 31.8985 0.903442L171.016 0.903442C172.107 0.903442 173.153 1.36035 173.925 2.17364C174.696 2.98693 175.13 4.08999 175.13 5.24016V211.352C175.13 212.502 174.696 213.605 173.925 214.418C173.153 215.232 172.107 215.688 171.016 215.688ZM31.8985 1.05534C30.8564 1.05735 29.8577 1.49514 29.1215 2.2726C28.3853 3.05007 27.9719 4.10369 27.9719 5.20218L27.9719 211.352C27.9719 212.45 28.3853 213.504 29.1215 214.281C29.8577 215.059 30.8564 215.497 31.8985 215.499H171.016C172.059 215.497 173.058 215.059 173.795 214.282C174.533 213.505 174.948 212.451 174.95 211.352V5.20218C174.948 4.10299 174.533 3.04939 173.795 2.27214C173.058 1.49489 172.059 1.05735 171.016 1.05534L31.8985 1.05534Z" fill="#EBEBEB"/>
<path d="M326.863 215.688H187.738C186.648 215.686 185.602 215.229 184.831 214.416C184.06 213.603 183.626 212.501 183.624 211.352V5.20218C183.636 4.05923 184.074 2.96705 184.844 2.16238C185.614 1.3577 186.654 0.905378 187.738 0.903442L326.863 0.903442C327.945 0.907395 328.982 1.36085 329.75 2.16552C330.517 2.97018 330.953 4.06123 330.962 5.20218V211.352C330.962 212.499 330.531 213.6 329.762 214.413C328.994 215.226 327.951 215.684 326.863 215.688ZM187.738 1.05534C186.695 1.05735 185.696 1.49489 184.959 2.27214C184.221 3.04939 183.806 4.10299 183.804 5.20218V211.352C183.806 212.451 184.221 213.505 184.959 214.282C185.696 215.059 186.695 215.497 187.738 215.499H326.863C327.906 215.497 328.905 215.059 329.642 214.282C330.38 213.505 330.795 212.451 330.797 211.352V5.20218C330.795 4.10299 330.38 3.04939 329.642 2.27214C328.905 1.49489 327.906 1.05735 326.863 1.05534L187.738 1.05534Z" fill="#EBEBEB"/>
<path d="M113.032 181.299L103.053 190.094L117.268 211.876L128.623 205.192C134.709 211.355 141.845 216.25 149.654 219.623L148.501 233.24L173.177 238.033L176.715 224.878C185.139 224.676 193.451 222.794 201.211 219.334L209.554 229.853L230.218 214.868L223.892 202.929C229.739 196.517 234.383 188.998 237.581 180.767L250.492 181.982L255.053 155.985L242.574 152.248C242.376 143.368 240.592 134.608 237.314 126.425L247.293 117.63L233.078 95.8555L221.716 102.531C215.632 96.3699 208.499 91.4741 200.692 88.101L201.845 74.4833L177.183 69.6833L173.646 82.8301C165.222 83.0413 156.912 84.9221 149.149 88.3745L140.756 77.8099L120.107 92.8023L126.44 104.772C120.595 111.188 115.95 118.71 112.751 126.942L99.8325 125.726L95.2791 151.724L107.751 155.453C107.951 164.342 109.742 173.111 113.032 181.299ZM141.786 147.326C143.006 140.366 146.157 133.944 150.84 128.872C155.524 123.799 161.528 120.305 168.095 118.83C174.662 117.355 181.497 117.966 187.735 120.586C193.972 123.205 199.333 127.716 203.139 133.547C206.944 139.379 209.024 146.269 209.115 153.346C209.206 160.424 207.304 167.37 203.65 173.308C199.996 179.246 194.753 183.909 188.585 186.706C182.417 189.503 175.601 190.309 168.999 189.023C160.145 187.297 152.304 181.935 147.2 174.116C142.097 166.296 140.149 156.66 141.786 147.326Z" fill="#F0F0F0"/>
<path d="M279.361 167.863L287.157 169.382L288.274 165.228C290.939 165.16 293.569 164.565 296.026 163.473L298.663 166.8L305.198 162.061L303.195 158.263C305.043 156.238 306.51 153.862 307.518 151.261L311.603 151.64L313.044 143.43L309.096 142.245C309.037 139.435 308.472 136.662 307.431 134.073L310.587 131.293L306.091 124.412L302.489 126.524C300.564 124.58 298.311 123.035 295.846 121.967L296.206 117.668L288.411 116.149L287.294 120.304C284.628 120.372 281.999 120.967 279.542 122.058L276.926 118.731L270.391 123.471L272.394 127.268C270.546 129.293 269.08 131.669 268.071 134.271L263.986 133.891L262.545 142.101L266.486 143.286C266.549 146.096 267.113 148.869 268.151 151.458L264.995 154.238L269.491 161.119L273.093 159.007C275.017 160.956 277.273 162.502 279.743 163.564L279.361 167.863ZM277.236 140.711C277.621 138.51 278.616 136.478 280.097 134.873C281.577 133.268 283.476 132.161 285.553 131.694C287.629 131.227 289.791 131.419 291.764 132.247C293.737 133.075 295.433 134.502 296.637 136.346C297.841 138.19 298.499 140.369 298.528 142.608C298.557 144.846 297.955 147.043 296.799 148.921C295.643 150.799 293.985 152.273 292.034 153.158C290.083 154.042 287.927 154.296 285.839 153.888C283.042 153.34 280.565 151.645 278.953 149.175C277.34 146.705 276.723 143.661 277.236 140.711Z" fill="#F0F0F0"/>
<path d="M60.5663 191.263L66.5031 192.425L67.3605 189.258C69.3892 189.204 71.3904 188.75 73.2612 187.921L75.2713 190.451L80.2498 186.843L78.7224 183.942C80.1275 182.404 81.2446 180.6 82.015 178.625L85.1275 178.914L86.2226 172.656L83.2182 171.79C83.1735 169.648 82.7432 167.534 81.9502 165.562L84.3566 163.443L80.9271 158.202L78.1965 159.813C76.736 158.331 75.0254 157.152 73.1531 156.334L73.4341 153.061L67.4902 151.899L66.64 155.066C64.609 155.12 62.6054 155.573 60.7321 156.402L58.7291 153.873L53.7506 157.481L55.278 160.367C53.8722 161.904 52.7551 163.708 51.9854 165.683L48.873 165.395L47.7778 171.653L50.7606 172.549C50.8053 174.691 51.2356 176.805 52.0287 178.777L49.6223 180.904L53.0445 186.144L55.7824 184.542C57.2438 186.02 58.9542 187.197 60.8257 188.013L60.5663 191.263ZM58.9525 170.582C59.2472 168.908 60.0063 167.363 61.1338 166.143C62.2612 164.923 63.7065 164.083 65.2868 163.729C66.8672 163.375 68.5116 163.522 70.0123 164.153C71.513 164.784 72.8025 165.87 73.7179 167.273C74.6333 168.677 75.1335 170.335 75.1551 172.038C75.1768 173.741 74.719 175.412 73.8396 176.841C72.9602 178.27 71.6987 179.392 70.2146 180.065C68.7305 180.738 67.0904 180.932 65.5016 180.623C63.3706 180.206 61.4838 178.914 60.2558 177.031C59.0277 175.149 58.559 172.829 58.9525 170.582Z" fill="#F0F0F0"/>
<path d="M166.585 51.7896L171.081 52.663L171.736 50.2706C173.275 50.2381 174.794 49.8952 176.211 49.2604L177.731 51.182L181.492 48.4478L180.339 46.268C181.403 45.0981 182.249 43.7274 182.832 42.2275L185.181 42.4478L186.009 37.7161L183.74 37.0326C183.702 35.4137 183.377 33.8165 182.781 32.3237L184.597 30.7212L182.01 26.7566L179.943 27.9718C178.833 26.85 177.533 25.9585 176.11 25.344L176.319 22.868L171.823 21.987L171.182 24.387C169.645 24.4188 168.128 24.7617 166.715 25.3971L165.194 23.4756L161.426 26.2098L162.586 28.3895C161.52 29.5578 160.674 30.9289 160.093 32.43L157.737 32.2098L156.909 36.9414L159.178 37.625C159.215 39.2441 159.54 40.8415 160.137 42.3339L158.321 43.9364L160.915 47.901L162.983 46.6858C164.089 47.8086 165.387 48.7003 166.808 49.3136L166.585 51.7896ZM165.367 36.1364C165.59 34.8693 166.164 33.7002 167.017 32.7769C167.87 31.8537 168.963 31.2177 170.159 30.9494C171.354 30.681 172.599 30.7924 173.734 31.2695C174.87 31.7465 175.846 32.5678 176.539 33.6294C177.231 34.6911 177.61 35.9454 177.627 37.234C177.644 38.5225 177.297 39.7873 176.632 40.8685C175.967 41.9497 175.013 42.7988 173.89 43.3083C172.767 43.8179 171.526 43.9651 170.324 43.7313C168.714 43.4175 167.288 42.4431 166.359 41.0221C165.429 39.6011 165.073 37.8494 165.367 36.1516V36.1364Z" fill="#F0F0F0"/>
<path d="M241.255 89.9086L244.253 90.4858L244.678 88.8909C245.703 88.8652 246.715 88.6358 247.66 88.2149L248.676 89.4985L251.184 87.6757L250.413 86.2175C251.123 85.4397 251.688 84.5275 252.077 83.5288L253.648 83.6731L254.202 80.5137L252.682 80.058C252.66 78.9797 252.444 77.9156 252.048 76.9212L253.259 75.8503L251.529 73.2073L250.153 74.02C249.412 73.2726 248.544 72.6776 247.596 72.2655L247.733 70.6098L244.735 70.025L244.31 71.6276C243.285 71.6507 242.273 71.8774 241.327 72.2959L240.312 71.02L237.804 72.8428L238.575 74.2934C237.866 75.0752 237.302 75.9896 236.911 76.9896L235.34 76.8453L234.793 79.9972L236.306 80.4529C236.327 81.5346 236.544 82.602 236.947 83.5972L235.729 84.6605L237.459 87.3111L238.842 86.4985C239.58 87.2473 240.445 87.8426 241.392 88.2529L241.255 89.9086ZM240.441 79.4655C240.589 78.6187 240.972 77.8371 241.541 77.2196C242.11 76.6021 242.84 76.1765 243.639 75.9966C244.438 75.8168 245.269 75.8907 246.028 76.2092C246.787 76.5276 247.439 77.0761 247.902 77.7854C248.366 78.4948 248.619 79.3329 248.63 80.1939C248.641 81.0548 248.409 81.8999 247.964 82.6221C247.52 83.3443 246.882 83.9112 246.131 84.2511C245.381 84.5909 244.551 84.6885 243.748 84.5314C242.673 84.321 241.721 83.6694 241.101 82.7196C240.481 81.7698 240.243 80.5995 240.441 79.4655Z" fill="#F0F0F0"/>
<path d="M103.111 51.8428L106.108 52.4276L106.533 50.8326C107.558 50.8032 108.569 50.574 109.516 50.1567L110.532 51.4326L113.039 49.6099L112.268 48.1592C112.978 47.3786 113.543 46.464 113.932 45.463L115.503 45.6149L116.058 42.4554L114.537 41.9997C114.515 40.919 114.3 39.8524 113.903 38.8554L115.114 37.7921L113.385 35.1415L112.001 35.9541C111.265 35.2051 110.399 34.6121 109.451 34.2073L109.588 32.5516L106.591 31.9668L106.173 33.5617C105.147 33.5874 104.135 33.8168 103.19 34.2377L102.174 32.9617L99.6884 34.7769L100.459 36.2352C99.7488 37.0157 99.1842 37.9304 98.795 38.9314L97.2243 38.7795L96.6768 41.939L98.1898 42.3947C98.2107 43.4739 98.4284 44.5388 98.831 45.5314L97.6134 46.6023L99.3425 49.2529L100.726 48.4402C101.464 49.1867 102.329 49.7793 103.276 50.1871L103.111 51.8428ZM102.296 41.4073C102.444 40.5605 102.827 39.7789 103.396 39.1614C103.965 38.5439 104.696 38.1183 105.494 37.9384C106.293 37.7585 107.125 37.8325 107.883 38.1509C108.642 38.4693 109.295 39.0179 109.758 39.7272C110.221 40.4365 110.474 41.2747 110.485 42.1356C110.496 42.9966 110.264 43.8417 109.82 44.5639C109.375 45.2861 108.737 45.853 107.986 46.1928C107.236 46.5327 106.407 46.6303 105.603 46.4731C104.528 46.2628 103.576 45.6112 102.956 44.6614C102.336 43.7116 102.099 42.5413 102.296 41.4073Z" fill="#F0F0F0"/>
<path d="M236.306 220.215C236.344 222.101 236.723 223.962 237.422 225.699L235.304 227.567L238.323 232.177L240.729 230.764C242.022 232.063 243.535 233.094 245.189 233.802L244.944 236.689L250.175 237.706L250.895 234.919C252.681 234.87 254.443 234.471 256.09 233.742L257.862 235.967L262.243 232.792L260.932 230.271C262.165 228.909 263.142 227.314 263.814 225.57L266.551 225.828L267.56 220.321L264.916 219.562C264.878 217.676 264.499 215.815 263.799 214.078L265.917 212.218L262.906 207.6L260.463 209.005C259.175 207.704 257.664 206.673 256.011 205.967L256.249 203.073L251.025 202.056L250.305 204.843C248.516 204.892 246.752 205.291 245.103 206.02L243.33 203.795L238.95 206.97L240.297 209.506C239.064 210.868 238.087 212.463 237.415 214.208L234.677 213.949L233.698 219.425L236.306 220.215ZM243.51 218.499C243.767 217.02 244.434 215.655 245.428 214.576C246.421 213.497 247.696 212.753 249.09 212.439C250.485 212.124 251.936 212.253 253.262 212.809C254.587 213.365 255.725 214.323 256.534 215.561C257.342 216.8 257.783 218.264 257.802 219.767C257.82 221.27 257.415 222.745 256.638 224.006C255.861 225.266 254.746 226.255 253.435 226.847C252.124 227.439 250.676 227.608 249.274 227.332C247.402 226.961 245.745 225.823 244.666 224.168C243.587 222.513 243.174 220.474 243.518 218.499H243.51Z" fill="#F0F0F0"/>
<path d="M281.559 187.511L273.511 190.618L281.559 193.701V196.853L270.031 192.243V188.932L281.559 184.321V187.511Z" fill="#E0E0E0"/>
<path d="M290.219 178.078H293.584L285.608 202.086H282.243L290.219 178.078Z" fill="#E0E0E0"/>
<path d="M305.529 188.962V192.296L294.002 196.906V193.724L302.049 190.64L294.002 187.534V184.375L305.529 188.962Z" fill="#E0E0E0"/>
<path d="M81.5611 228.053C82.7139 228.418 83.247 229.185 83.247 231.015V235.245C83.2134 235.509 83.2373 235.776 83.3169 236.028C83.3965 236.28 83.5297 236.509 83.7064 236.698C83.883 236.887 84.0984 237.031 84.3359 237.119C84.5735 237.207 84.827 237.236 85.077 237.205H85.5309V240.433H84.09C80.9487 240.433 79.342 238.739 79.342 235.694V230.909C79.342 230.058 78.9169 229.663 78.2397 229.663H77.4111V226.473H78.2397C78.9169 226.473 79.342 226.078 79.342 225.228V220.397C79.342 217.359 80.9487 215.666 84.09 215.666H85.5309V218.878H85.077C84.827 218.847 84.5735 218.876 84.3359 218.964C84.0984 219.052 83.883 219.196 83.7064 219.385C83.5297 219.574 83.3965 219.804 83.3169 220.055C83.2373 220.307 83.2134 220.575 83.247 220.838V225.068C83.247 226.914 82.7139 227.681 81.5611 228.053Z" fill="#E0E0E0"/>
<path d="M101.533 226.473V229.701H100.704C100.549 229.687 100.392 229.71 100.246 229.768C100.1 229.827 99.9691 229.92 99.8623 230.04C99.7554 230.16 99.6758 230.304 99.6294 230.461C99.5831 230.618 99.5713 230.784 99.5948 230.947V235.732C99.5948 238.77 97.9881 240.471 94.854 240.471H93.4131V237.243H93.867C94.117 237.274 94.3705 237.245 94.6081 237.157C94.8457 237.069 95.061 236.925 95.2376 236.736C95.4143 236.547 95.5475 236.318 95.6271 236.066C95.7067 235.814 95.7307 235.546 95.697 235.283V231.03C95.697 229.2 96.223 228.433 97.3757 228.068C96.223 227.696 95.697 226.929 95.697 225.099V220.853C95.7336 220.587 95.7113 220.317 95.632 220.061C95.5527 219.806 95.4185 219.574 95.2399 219.383C95.0612 219.192 94.8431 219.047 94.6024 218.959C94.3617 218.872 94.1051 218.844 93.8526 218.878H93.3987V215.651H94.8396C97.9737 215.651 99.5804 217.344 99.5804 220.382V225.175C99.5569 225.337 99.5687 225.503 99.615 225.661C99.6614 225.818 99.741 225.962 99.8478 226.082C99.9547 226.202 100.086 226.295 100.232 226.353C100.378 226.412 100.534 226.435 100.69 226.42L101.533 226.473Z" fill="#E0E0E0"/>
<path d="M71.2222 73.9136C71.2222 68.7035 75.0119 64.982 80.1129 64.982C81.3801 64.9224 82.6438 65.1647 83.81 65.6906C84.9762 66.2165 86.0151 67.0127 86.8494 68.0199L84.4142 70.382C83.9147 69.7432 83.286 69.2303 82.5742 68.8808C81.8624 68.5312 81.0854 68.3539 80.3002 68.3617C79.5955 68.3342 78.8928 68.4567 78.2341 68.722C77.5754 68.9872 76.9741 69.3898 76.4664 69.9056C75.9586 70.4214 75.5547 71.0398 75.2788 71.7239C75.0029 72.408 74.8608 73.1437 74.8608 73.887C74.8608 74.6304 75.0029 75.3661 75.2788 76.0502C75.5547 76.7343 75.9586 77.3527 76.4664 77.8685C76.9741 78.3843 77.5754 78.7869 78.2341 79.0521C78.8928 79.3174 79.5955 79.4399 80.3002 79.4124C81.0885 79.4215 81.8685 79.2417 82.5812 78.8864C83.2939 78.5312 83.9207 78.0098 84.4142 77.3617L86.8494 79.7314C86.0187 80.7522 84.9785 81.5603 83.8076 82.0945C82.6367 82.6288 81.3659 82.8751 80.0913 82.8149C75.0119 82.8377 71.2222 79.1314 71.2222 73.9136Z" fill="#E0E0E0"/>
<path d="M99.9117 75.4174H95.841V79.6098H92.8222V75.4174H88.7803V72.3794H92.8222V68.1794H95.841V72.3794H99.9117V75.4174Z" fill="#E0E0E0"/>
<path d="M114.098 75.4174H110.027V79.6098H107.008V75.4174H102.959V72.3794H107.008V68.1794H110.027V72.3794H114.098V75.4174Z" fill="#E0E0E0"/>
<path d="M131.433 160.876L133.796 157.883C134.797 159.296 135.907 160.018 137.218 160.018C138.933 160.018 139.826 158.931 139.826 156.797V147.562H133.342V143.954H144.055V156.547C144.055 161.347 141.764 163.709 137.42 163.709C136.282 163.754 135.15 163.522 134.112 163.03C133.074 162.539 132.157 161.802 131.433 160.876Z" fill="#E0E0E0"/>
<path d="M146.62 161.985L147.96 158.878C149.449 159.813 151.148 160.311 152.881 160.321C154.776 160.321 155.489 159.797 155.489 158.962C155.489 156.524 146.937 159.015 146.937 153.053C146.937 150.22 149.358 148.223 153.487 148.223C155.378 148.184 157.25 148.633 158.941 149.529L157.572 152.612C156.327 151.868 154.918 151.483 153.487 151.496C151.649 151.496 150.857 152.111 150.857 152.886C150.857 155.438 159.409 152.969 159.409 158.848C159.409 161.628 156.966 163.595 152.723 163.595C150.59 163.633 148.485 163.078 146.62 161.985Z" fill="#E0E0E0"/>
</svg>
