<svg width="25" height="26" viewBox="0 0 25 26" fill="none" xmlns="http://www.w3.org/2000/svg">
<path d="M4.54543 3.26492H6.81816V6.67401H4.54543V3.26492ZM9.09089 3.26492H11.3636V6.67401H9.09089V3.26492ZM13.6363 3.26492H15.9091V6.67401H13.6363V3.26492ZM20.4545 11.2195H18.1818V10.0831C18.1818 9.78174 18.062 9.49265 17.8491 9.27947C17.6359 9.06651 17.3468 8.94674 17.0454 8.94674H3.40907C3.1077 8.94674 2.81862 9.06651 2.60543 9.27947C2.39248 9.49265 2.27271 9.78174 2.27271 10.0831V21.4467C2.27271 22.3508 2.63179 23.2181 3.27111 23.8574C3.91043 24.4967 4.7777 24.8558 5.6818 24.8558H14.7727C15.6768 24.8558 16.5441 24.4967 17.1834 23.8574C17.8227 23.2181 18.1818 22.3508 18.1818 21.4467H20.4545C21.7079 21.4467 22.7272 20.4274 22.7272 19.174V13.4922C22.7272 12.2388 21.7079 11.2195 20.4545 11.2195ZM18.1818 19.174V13.4922H20.4545L20.4568 19.174H18.1818Z" fill="#284184"/>
</svg>
