<?xml version="1.0" standalone="no"?>
<!DOCTYPE svg PUBLIC "-//W3C//DTD SVG 20010904//EN"
 "http://www.w3.org/TR/2001/REC-SVG-20010904/DTD/svg10.dtd">
<svg version="1.0" xmlns="http://www.w3.org/2000/svg"
 width="20" height="20" viewBox="0 0 360.000000 360.000000"
 preserveAspectRatio="xMidYMid meet">

<g transform="translate(0.000000,360.000000) scale(0.100000,-0.100000)"
fill="#000000" stroke="none">
<path d="M1193 3590 c-480 -61 -895 -378 -1078 -825 -250 -607 -28 -1305 527
-1658 433 -275 996 -272 1435 9 l51 33 549 -550 c317 -319 564 -559 586 -570
61 -32 125 -35 183 -10 64 29 92 55 120 116 30 63 30 117 1 177 -23 50 -112
143 -780 815 l-340 341 31 49 c78 122 144 279 184 441 30 120 32 433 5 562
-87 403 -345 744 -703 927 -126 65 -218 97 -347 124 -116 23 -315 32 -424 19z
m400 -474 c359 -106 606 -402 648 -776 26 -226 -36 -439 -194 -660 -86 -120
-270 -241 -452 -296 -78 -23 -109 -27 -230 -28 -108 -1 -157 3 -215 18 -326
83 -570 318 -660 638 -27 93 -37 276 -21 378 57 368 355 676 719 745 116 22
293 14 405 -19z"/>
</g>
</svg>
