<?xml version="1.0" standalone="no"?>
<!DOCTYPE svg PUBLIC "-//W3C//DTD SVG 20010904//EN"
 "http://www.w3.org/TR/2001/REC-SVG-20010904/DTD/svg10.dtd">
<svg version="1.0" xmlns="http://www.w3.org/2000/svg"
 width="225.000000pt" height="225.000000pt" viewBox="0 0 225.000000 225.000000"
 preserveAspectRatio="xMidYMid meet">

<g transform="translate(0.000000,225.000000) scale(0.100000,-0.100000)"
fill="#000000" stroke="none">
<path d="M612 1699 c-117 -23 -230 -110 -280 -217 -24 -50 -27 -69 -27 -162 0
-100 1 -108 34 -168 43 -78 104 -135 189 -175 63 -30 74 -32 177 -32 104 0
114 2 176 32 63 31 146 107 209 191 l25 34 48 -66 c91 -124 192 -184 326 -193
161 -11 302 54 379 174 180 283 -65 639 -401 584 -128 -21 -215 -75 -308 -191
l-47 -59 -28 40 c-42 61 -137 144 -196 172 -88 42 -185 54 -276 36z m204 -144
c58 -24 120 -80 174 -157 l49 -70 -41 -61 c-97 -142 -160 -188 -273 -195 -44
-3 -87 0 -111 8 -129 42 -209 169 -182 292 27 129 147 215 285 204 34 -3 78
-12 99 -21z m804 9 c67 -20 150 -99 168 -160 16 -56 15 -127 -3 -172 -20 -47
-79 -108 -130 -134 -58 -30 -171 -36 -233 -13 -59 23 -138 97 -192 180 l-42
64 33 48 c119 173 246 233 399 187z"/>
<path d="M570 1335 l0 -25 135 0 135 0 0 25 0 25 -135 0 -135 0 0 -25z"/>
<path d="M1480 1405 c0 -33 -2 -35 -35 -35 -33 0 -35 -2 -35 -35 0 -33 2 -35
35 -35 33 0 35 -2 35 -35 0 -33 2 -35 35 -35 33 0 35 2 35 35 0 33 2 35 35 35
33 0 35 2 35 35 0 33 -2 35 -35 35 -33 0 -35 2 -35 35 0 33 -2 35 -35 35 -33
0 -35 -2 -35 -35z"/>
<path d="M1783 856 c-41 -19 -63 -62 -63 -126 0 -85 34 -130 99 -130 75 0 111
45 111 139 0 52 -4 65 -27 91 -33 36 -76 45 -120 26z m87 -55 c15 -30 12 -113
-6 -139 -8 -12 -26 -22 -39 -22 -33 0 -55 36 -55 90 0 25 7 56 16 68 20 28 69
30 84 3z"/>
<path d="M353 730 l-40 -130 24 0 c18 0 27 8 34 30 10 27 15 30 55 30 41 0 46
-3 55 -30 8 -23 17 -30 36 -30 19 0 24 4 21 18 -3 9 -20 68 -39 129 l-34 113
-35 0 -36 0 -41 -130z m102 -7 c6 -33 6 -33 -30 -33 -30 0 -36 3 -31 16 4 9
12 37 18 63 l12 46 12 -30 c6 -17 15 -45 19 -62z"/>
<path d="M570 730 l0 -130 25 0 c24 0 25 3 25 55 0 49 2 55 21 55 15 0 26 -14
44 -55 22 -49 28 -55 56 -55 l30 0 -33 64 -34 63 23 21 c30 26 29 57 -2 87
-21 22 -33 25 -90 25 l-65 0 0 -130z m121 74 c19 -23 -1 -48 -40 -52 -30 -3
-31 -2 -31 32 0 33 2 36 29 36 16 0 34 -7 42 -16z"/>
<path d="M800 729 l0 -132 60 6 c34 3 72 13 86 22 63 41 71 157 15 207 -27 25
-39 28 -96 28 l-65 0 0 -131z m123 76 c39 -39 26 -138 -20 -156 -51 -19 -53
-16 -53 81 l0 90 29 0 c16 0 36 -7 44 -15z"/>
<path d="M1030 755 c0 -99 2 -107 25 -130 34 -35 106 -35 140 0 23 23 25 31
25 130 0 98 -1 105 -20 105 -18 0 -20 -7 -20 -84 0 -107 -10 -136 -48 -136
-46 0 -52 15 -52 122 0 98 0 98 -25 98 l-25 0 0 -105z"/>
<path d="M1280 840 c0 -16 7 -20 30 -20 l30 0 0 -90 0 -90 -30 0 c-23 0 -30
-4 -30 -20 0 -18 7 -20 80 -20 73 0 80 2 80 20 0 16 -7 20 -30 20 l-30 0 0 90
0 90 30 0 c23 0 30 4 30 20 0 18 -7 20 -80 20 -73 0 -80 -2 -80 -20z"/>
<path d="M1500 731 c0 -124 1 -131 20 -131 19 0 20 7 20 92 0 50 3 89 6 85 4
-3 24 -43 45 -89 35 -75 41 -83 69 -86 l30 -3 0 130 c0 124 -1 131 -20 131
-18 0 -20 -7 -20 -85 0 -47 -3 -85 -7 -85 -5 0 -24 37 -44 83 -33 75 -39 82
-68 85 l-31 3 0 -130z"/>
</g>
</svg>
