<svg width="61" height="60" viewBox="0 0 61 60" fill="none" xmlns="http://www.w3.org/2000/svg">
<path d="M18.1885 41.2158C18.1885 42.3584 19.1211 43.291 20.2686 43.291H22.6465V49.1699C22.6465 50.6592 23.8428 51.875 25.3125 51.875C26.7871 51.875 27.9785 50.6641 27.9785 49.1699V43.2861H32.1289V49.165C32.1289 50.6543 33.3252 51.8701 34.7949 51.8701C36.2695 51.8701 37.4609 50.6592 37.4609 49.165V43.2861H39.8389C40.9863 43.2861 41.9189 42.3535 41.9189 41.2109V21.9141H18.1885V41.2158ZM35.625 11.9141L37.8174 8.74024C37.9443 8.55469 37.915 8.30567 37.7441 8.1836C37.5732 8.06641 37.3291 8.125 37.2022 8.31055L34.9268 11.6113C33.4277 11.0205 31.7578 10.6934 30.0049 10.6934C28.252 10.6934 26.582 11.0205 25.083 11.6113L22.8076 8.31543C22.6807 8.12988 22.4365 8.06641 22.2656 8.18848C22.0947 8.30567 22.0654 8.54981 22.1924 8.74512L24.3848 11.9189C20.8984 13.54 18.457 16.6113 18.1445 20.2002H41.875C41.5527 16.6064 39.1064 13.5352 35.625 11.9141ZM24.9951 16.9189C24.7353 16.9189 24.4814 16.8419 24.2654 16.6976C24.0494 16.5533 23.881 16.3481 23.7816 16.1081C23.6822 15.8681 23.6562 15.604 23.7069 15.3492C23.7576 15.0944 23.8827 14.8604 24.0663 14.6767C24.25 14.493 24.4841 14.3679 24.7389 14.3172C24.9937 14.2666 25.2578 14.2926 25.4978 14.392C25.7378 14.4914 25.9429 14.6597 26.0872 14.8757C26.2316 15.0917 26.3086 15.3457 26.3086 15.6055C26.3077 15.9535 26.169 16.2871 25.9229 16.5332C25.6768 16.7794 25.3432 16.918 24.9951 16.9189ZM35.1709 16.9189C34.9111 16.9189 34.6572 16.8419 34.4412 16.6976C34.2252 16.5533 34.0568 16.3481 33.9574 16.1081C33.858 15.8681 33.832 15.604 33.8827 15.3492C33.9333 15.0944 34.0584 14.8604 34.2421 14.6767C34.4258 14.493 34.6599 14.3679 34.9147 14.3172C35.1694 14.2666 35.4335 14.2926 35.6735 14.392C35.9136 14.4914 36.1187 14.6597 36.263 14.8757C36.4073 15.0917 36.4844 15.3457 36.4844 15.6055C36.4835 15.9535 36.3448 16.2871 36.0987 16.5332C35.8525 16.7794 35.519 16.918 35.1709 16.9189ZM46.0791 21.8359C44.6045 21.8359 43.4131 23.0469 43.4131 24.541V35.1074C43.4131 36.5967 44.6094 37.8125 46.0791 37.8125C47.5537 37.8125 48.7451 36.6016 48.7451 35.1074V24.5361C48.75 23.042 47.5586 21.8359 46.0791 21.8359ZM13.9209 21.8359C12.4463 21.8359 11.2549 23.0469 11.2549 24.541V35.1074C11.2549 36.5967 12.4512 37.8125 13.9209 37.8125C15.3955 37.8125 16.5869 36.6016 16.5869 35.1074V24.5361C16.5869 23.042 15.3906 21.8359 13.9209 21.8359Z" fill="#020438"/>
</svg>
