<svg width="52" height="50" viewBox="0 0 52 50" fill="none" xmlns="http://www.w3.org/2000/svg">
<path d="M8.43259 0.751263C7.11315 1.75824 7.80759 2.42957 10.2381 2.76523C13.7798 3.26872 12.6687 5.3666 8.77981 5.61835C6.00203 5.87009 4.89092 6.37358 3.08537 8.55538C1.83537 9.98194 0.793701 11.912 0.793701 12.7511C0.793701 13.6742 2.0437 15.7721 3.57148 17.4504C6.14092 20.3035 6.34926 20.807 6.34926 25.0028C6.34926 28.779 6.14092 29.5342 4.89092 29.8699C3.77981 30.2055 3.57148 30.7929 3.9187 32.1356C4.19648 33.0586 4.5437 35.3244 4.75203 37.0027C5.09926 39.9397 5.30759 40.1914 7.25203 40.1914C8.9187 40.1914 9.19648 39.9397 8.57148 39.1845C7.32148 37.674 7.59926 34.737 9.05759 33.1426C10.7937 31.2125 12.877 31.716 13.1548 34.1495C13.2937 35.3244 14.3354 36.5831 16.0715 37.674C17.5298 38.5971 18.8493 39.7719 18.9881 40.2754C19.127 40.7789 20.0298 41.0306 20.9326 40.8628L22.5993 40.611L20.3076 37.4222C17.8076 34.0656 17.7381 31.9677 20.0993 28.4433C21.2798 26.6811 21.4187 26.6811 23.9187 27.8559C26.9048 29.3664 26.9743 29.8699 25.0993 34.3174C23.2243 38.7649 23.2243 41.8698 25.1687 41.8698C26.2798 41.8698 26.4881 41.5341 26.1409 40.1075C25.7937 38.8488 26.4187 37.0866 28.2937 33.8139C31.8354 27.5202 33.0159 27.9398 33.2937 35.4083C33.502 40.7789 33.5715 41.0306 35.3076 41.0306C36.6965 41.0306 36.9743 40.6949 36.5576 39.5201C36.002 37.7579 36.002 38.0936 36.1409 33.2265C36.2104 29.8699 36.4187 29.2825 37.5993 29.2825C38.7798 29.2825 38.9881 29.8699 38.9881 32.5552C38.9881 34.4013 39.3354 36.1635 39.6826 36.4153C40.6548 37.1705 46.627 29.9538 46.627 28.1076C46.627 27.3524 46.0715 26.765 45.3076 26.765C44.6131 26.765 43.7798 26.1776 43.5715 25.4224C43.0854 23.9119 43.5715 22.5692 44.6826 22.5692C45.1687 22.5692 45.1687 22.9049 44.6131 23.6601C43.6409 25.1706 44.3354 25.9258 46.5576 25.9258C47.5993 25.9258 49.0576 26.5133 49.9604 27.1846C51.4187 28.4433 51.4187 28.4433 50.8631 26.5972C50.5854 25.5063 49.6826 24.2475 48.9187 23.828C48.0854 23.3245 46.627 21.6462 45.5854 20.1357C44.4743 18.6252 41.1409 14.7651 38.0854 11.4924L32.5298 5.61835L28.9881 5.95401C26.8354 6.20575 21.7659 8.21972 15.9326 11.2407C6.69648 15.9399 6.34926 16.0238 4.61315 14.6812C2.52981 13.0029 2.46037 11.912 4.19648 9.31062C5.1687 7.96798 6.27981 7.46449 8.2937 7.46449C9.82148 7.46449 11.5576 7.21274 12.1826 6.96099C13.7104 6.20575 13.5715 3.10089 11.9048 1.33867C10.3076 -0.255722 9.89092 -0.339638 8.43259 0.751263Z" fill="#020438"/>
</svg>
