<svg width="61" height="60" viewBox="0 0 61 60" fill="none" xmlns="http://www.w3.org/2000/svg">
<path d="M14.0251 23.375H9.6251C9.5232 23.3748 9.42507 23.4135 9.35074 23.4832C9.2764 23.5529 9.23147 23.6483 9.2251 23.75V27.7C9.23147 27.8017 9.2764 27.8971 9.35074 27.9668C9.42507 28.0365 9.5232 28.0752 9.6251 28.075H14.0251C14.127 28.0752 14.2251 28.0365 14.2995 27.9668C14.3738 27.8971 14.4187 27.8017 14.4251 27.7V23.75C14.4187 23.6483 14.3738 23.5529 14.2995 23.4832C14.2251 23.4135 14.127 23.3748 14.0251 23.375ZM20.1251 23.375H15.7001C15.5982 23.3748 15.5001 23.4135 15.4257 23.4832C15.3514 23.5529 15.3065 23.6483 15.3001 23.75V27.7C15.3065 27.8017 15.3514 27.8971 15.4257 27.9668C15.5001 28.0365 15.5982 28.0752 15.7001 28.075H20.1251C20.2246 28.075 20.3199 28.0355 20.3903 27.9652C20.4606 27.8949 20.5001 27.7995 20.5001 27.7V23.75C20.5001 23.6506 20.4606 23.5552 20.3903 23.4848C20.3199 23.4145 20.2246 23.375 20.1251 23.375ZM26.3001 23.375H21.8751C21.7756 23.375 21.6803 23.4145 21.6099 23.4848C21.5396 23.5552 21.5001 23.6506 21.5001 23.75V27.7C21.5001 27.7995 21.5396 27.8949 21.6099 27.9652C21.6803 28.0355 21.7756 28.075 21.8751 28.075H26.3001C26.3996 28.075 26.4949 28.0355 26.5653 27.9652C26.6356 27.8949 26.6751 27.7995 26.6751 27.7V23.75C26.6751 23.6506 26.6356 23.5552 26.5653 23.4848C26.4949 23.4145 26.3996 23.375 26.3001 23.375ZM27.9751 23.375C27.9183 23.3593 27.8586 23.3571 27.8008 23.3688C27.743 23.3804 27.6888 23.4055 27.6425 23.442C27.5962 23.4786 27.5592 23.5255 27.5345 23.579C27.5097 23.6325 27.498 23.6911 27.5001 23.75V27.7C27.5001 27.7493 27.5098 27.798 27.5286 27.8435C27.5475 27.889 27.5751 27.9304 27.6099 27.9652C27.6448 28 27.6861 28.0276 27.7316 28.0465C27.7771 28.0653 27.8259 28.075 27.8751 28.075H32.5001C32.5996 28.075 32.6949 28.0355 32.7653 27.9652C32.8356 27.8949 32.8751 27.7995 32.8751 27.7V23.75C32.8751 23.6506 32.8356 23.5552 32.7653 23.4848C32.6949 23.4145 32.5996 23.375 32.5001 23.375H27.9751ZM15.7001 17.725H20.0001C20.1062 17.725 20.2079 17.7672 20.2829 17.8422C20.358 17.9172 20.4001 18.0189 20.4001 18.125V22.025C20.4113 22.0834 20.4093 22.1436 20.3942 22.2012C20.3792 22.2587 20.3515 22.3122 20.3132 22.3577C20.2748 22.4032 20.2269 22.4396 20.1727 22.4642C20.1185 22.4888 20.0596 22.5011 20.0001 22.5H15.7001C15.6006 22.5 15.5053 22.4605 15.4349 22.3902C15.3646 22.3199 15.3251 22.2245 15.3251 22.125V18.1C15.3251 18.0508 15.3348 18.002 15.3536 17.9565C15.3725 17.911 15.4001 17.8697 15.4349 17.8348C15.4698 17.8 15.5111 17.7724 15.5566 17.7536C15.6021 17.7347 15.6509 17.725 15.7001 17.725ZM21.8751 17.725H26.3001C26.3493 17.725 26.3981 17.7347 26.4436 17.7536C26.4891 17.7724 26.5304 17.8 26.5653 17.8348C26.6001 17.8697 26.6277 17.911 26.6466 17.9565C26.6654 18.002 26.6751 18.0508 26.6751 18.1V22.025C26.6751 22.1311 26.633 22.2328 26.5579 22.3079C26.4829 22.3829 26.3812 22.425 26.2751 22.425H21.8751C21.7756 22.425 21.6803 22.3855 21.6099 22.3152C21.5396 22.2449 21.5001 22.1495 21.5001 22.05V18.1C21.5001 18.0508 21.5098 18.002 21.5286 17.9565C21.5475 17.911 21.5751 17.8697 21.6099 17.8348C21.6448 17.8 21.6861 17.7724 21.7316 17.7536C21.7771 17.7347 21.8259 17.725 21.8751 17.725ZM27.9751 17.725H32.5001C32.5493 17.725 32.5981 17.7347 32.6436 17.7536C32.6891 17.7724 32.7304 17.8 32.7653 17.8348C32.8001 17.8697 32.8277 17.911 32.8466 17.9565C32.8654 18.002 32.8751 18.0508 32.8751 18.1V22.025C32.8909 22.0818 32.893 22.1415 32.8814 22.1993C32.8697 22.2571 32.8446 22.3114 32.8081 22.3576C32.7715 22.4039 32.7246 22.4409 32.6711 22.4656C32.6176 22.4904 32.559 22.5022 32.5001 22.5H27.9751C27.9098 22.514 27.842 22.5115 27.778 22.4925C27.7139 22.4736 27.6556 22.439 27.6084 22.3918C27.5611 22.3445 27.5265 22.2862 27.5076 22.2222C27.4887 22.1581 27.4861 22.0903 27.5001 22.025V18.1C27.498 18.0411 27.5097 17.9825 27.5345 17.929C27.5592 17.8755 27.5962 17.8286 27.6425 17.792C27.6888 17.7555 27.743 17.7304 27.8008 17.7188C27.8586 17.7071 27.9183 17.7093 27.9751 17.725Z" fill="#020438"/>
<path d="M32.4001 12.05H27.9751C27.768 12.05 27.6001 12.2179 27.6001 12.425V16.375C27.6001 16.5821 27.768 16.75 27.9751 16.75H32.4001C32.6072 16.75 32.7751 16.5821 32.7751 16.375V12.425C32.7751 12.2179 32.6072 12.05 32.4001 12.05Z" fill="#020438"/>
<path d="M34.125 23.375C34.0255 23.375 33.9302 23.4145 33.8598 23.4848C33.7895 23.5552 33.75 23.6505 33.75 23.75V27.7C33.75 27.7995 33.7895 27.8948 33.8598 27.9652C33.9302 28.0355 34.0255 28.075 34.125 28.075H38.55C38.5992 28.075 38.648 28.0653 38.6935 28.0465C38.739 28.0276 38.7803 28 38.8152 27.9652C38.85 27.9303 38.8776 27.889 38.8965 27.8435C38.9153 27.798 38.925 27.7492 38.925 27.7V23.75C38.925 23.7008 38.9153 23.652 38.8965 23.6065C38.8776 23.561 38.85 23.5197 38.8152 23.4848C38.7803 23.45 38.739 23.4224 38.6935 23.4035C38.648 23.3847 38.5992 23.375 38.55 23.375H34.125Z" fill="#020438"/>
<path d="M50.4249 24.55C49.7211 24.5461 49.0183 24.6047 48.3249 24.725C48.1438 23.6303 47.7313 22.5868 47.1148 21.6642C46.4983 20.7416 45.692 19.9612 44.7499 19.375L44.0499 18.975L43.5749 19.65C42.9784 20.559 42.5467 21.5661 42.2999 22.625C42.0532 23.5576 41.999 24.5307 42.1409 25.485C42.2827 26.4392 42.6175 27.3545 43.1249 28.175C41.9801 28.6853 40.7515 28.9819 39.4999 29.05H6.5749C6.16148 29.05 5.76461 29.2125 5.46995 29.5024C5.17529 29.7924 5.00646 30.1866 4.9999 30.6C4.96913 33.4893 5.46034 36.3603 6.4499 39.075C7.3382 41.7423 9.09971 44.0322 11.4499 45.575C14.8659 47.3089 18.6732 48.1272 22.4999 47.95C24.5261 47.9851 26.5512 47.8345 28.5499 47.5C31.3514 46.9984 34.0478 46.0264 36.5249 44.625C38.5701 43.3849 40.4019 41.8232 41.9499 40C44.2585 37.2841 46.0619 34.1767 47.2749 30.825H47.7499C48.7721 30.8628 49.7915 30.6966 50.7487 30.336C51.7059 29.9754 52.5817 29.4278 53.3249 28.725C53.9738 28.1201 54.478 27.3767 54.7999 26.55L54.9999 26L54.4999 25.6C53.2889 24.8231 51.8606 24.4551 50.4249 24.55Z" fill="#020438"/>
</svg>
