<svg width="28" height="29" viewBox="0 0 28 29" fill="none" xmlns="http://www.w3.org/2000/svg">
<g clip-path="url(#clip0_3_746)">
<path fill-rule="evenodd" clip-rule="evenodd" d="M14 0.5C6.54125 0.5 0.5 6.54125 0.5 14C0.5 19.9737 4.36437 25.0194 9.73063 26.8081C10.4056 26.9262 10.6587 26.5212 10.6587 26.1669C10.6587 25.8462 10.6419 24.7831 10.6419 23.6525C7.25 24.2769 6.3725 22.8256 6.1025 22.0662C5.95062 21.6781 5.2925 20.48 4.71875 20.1594C4.24625 19.9062 3.57125 19.2819 4.70187 19.265C5.765 19.2481 6.52437 20.2437 6.7775 20.6487C7.9925 22.6906 9.93312 22.1169 10.7094 21.7625C10.8275 20.885 11.1819 20.2944 11.57 19.9569C8.56625 19.6194 5.4275 18.455 5.4275 13.2912C5.4275 11.8231 5.95062 10.6081 6.81125 9.66312C6.67625 9.32562 6.20375 7.94187 6.94625 6.08562C6.94625 6.08562 8.07687 5.73125 10.6587 7.46937C11.7387 7.16562 12.8862 7.01375 14.0337 7.01375C15.1812 7.01375 16.3287 7.16562 17.4088 7.46937C19.9906 5.71437 21.1213 6.08562 21.1213 6.08562C21.8638 7.94187 21.3913 9.32562 21.2563 9.66312C22.1169 10.6081 22.64 11.8062 22.64 13.2912C22.64 18.4719 19.4844 19.6194 16.4806 19.9569C16.97 20.3787 17.3919 21.1887 17.3919 22.4544C17.3919 24.26 17.375 25.7112 17.375 26.1669C17.375 26.5212 17.6281 26.9431 18.3031 26.8081C20.9831 25.9033 23.3118 24.1809 24.9616 21.8833C26.6114 19.5857 27.4992 16.8286 27.5 14C27.5 6.54125 21.4587 0.5 14 0.5Z" fill="#fff"/>
</g>
<defs>
<clipPath id="clip0_3_746">
<rect width="27" height="28" fill="white" transform="translate(0.5 0.5)"/>
</clipPath>
</defs>
</svg>
