<svg width="61" height="60" viewBox="0 0 61 60" fill="none" xmlns="http://www.w3.org/2000/svg">
<g clip-path="url(#clip0_8_387)">
<path d="M59.8676 27.3262L33.6701 1.13249C33.3114 0.773625 32.8855 0.488945 32.4168 0.294717C31.9481 0.100489 31.4456 0.000518799 30.9382 0.000518799C30.4309 0.000518799 29.9284 0.100489 29.4597 0.294717C28.9909 0.488945 28.5651 0.773625 28.2064 1.13249L22.7689 6.56999L29.6689 13.47C30.4826 13.1922 31.3581 13.1487 32.1954 13.3446C33.0327 13.5404 33.798 13.9677 34.4041 14.5777C35.0102 15.1877 35.4326 15.9558 35.6231 16.7943C35.8135 17.6328 35.7644 18.508 35.4814 19.32L42.1301 25.9725C43.1138 25.6261 44.1861 25.6251 45.1704 25.9695C46.1548 26.3139 46.9925 26.9833 47.5456 27.8674C48.0988 28.7514 48.3344 29.7975 48.2136 30.8334C48.0929 31.8692 47.623 32.8331 46.8814 33.5662C46.1306 34.3217 45.1408 34.793 44.0811 34.8997C43.0214 35.0063 41.9575 34.7418 41.0712 34.1512C40.1848 33.5606 39.5311 32.6806 39.2215 31.6616C38.9119 30.6425 38.9658 29.5475 39.3739 28.5637L33.1751 22.3612V38.685C34.1173 39.1514 34.8712 39.9266 35.3112 40.8815C35.7511 41.8363 35.8505 42.9131 35.5928 43.9324C35.335 44.9516 34.7358 45.8518 33.8948 46.4827C33.0539 47.1137 32.0221 47.4374 30.9715 47.3999C29.9208 47.3624 28.9147 46.9659 28.121 46.2765C27.3272 45.5872 26.7937 44.6466 26.6093 43.6115C26.4249 42.5765 26.6009 41.5095 27.1078 40.5885C27.6147 39.6675 28.422 38.948 29.3951 38.55V22.0762C28.8337 21.8462 28.3234 21.5073 27.8935 21.0791C27.4637 20.6509 27.1229 20.1418 26.8907 19.5813C26.6586 19.0208 26.5396 18.4198 26.5408 17.8131C26.542 17.2064 26.6633 16.6059 26.8976 16.0462L20.0989 9.24374L2.13637 27.2062C1.7775 27.5649 1.49282 27.9908 1.29859 28.4596C1.10436 28.9283 1.00439 29.4307 1.00439 29.9381C1.00439 30.4455 1.10436 30.9479 1.29859 31.4167C1.49282 31.8854 1.7775 32.3113 2.13637 32.67L28.3339 58.8675C28.6926 59.2264 29.1184 59.511 29.5872 59.7053C30.0559 59.8995 30.5584 59.9995 31.0657 59.9995C31.5731 59.9995 32.0756 59.8995 32.5443 59.7053C33.013 59.511 33.4389 59.2264 33.7976 58.8675L59.8714 32.7937C60.5952 32.0688 61.0018 31.0863 61.0018 30.0619C61.0018 29.0374 60.5952 28.0549 59.8714 27.33" fill="#020438"/>
</g>
<defs>
<clipPath id="clip0_8_387">
<rect width="60" height="60" fill="white" transform="translate(1)"/>
</clipPath>
</defs>
</svg>
