<svg width="60" height="60" viewBox="0 0 60 60" fill="none" xmlns="http://www.w3.org/2000/svg">
<path d="M23.4251 43.775C15.7001 45.925 28.1001 50.375 37.9251 46.275C36.9716 45.9042 36.0516 45.4525 35.1751 44.925C31.764 45.7016 28.2405 45.8541 24.7751 45.375C21.5001 45 23.4251 43.775 23.4251 43.775ZM36.7501 39.575C32.3502 40.5319 27.8219 40.7515 23.3501 40.225C20.0751 39.875 22.2251 38.3 22.2251 38.3C13.7251 41.1 26.9501 44.3 38.8251 40.8C38.053 40.5463 37.3451 40.1284 36.7501 39.575ZM41.3001 15.25C41.3001 15.25 24.1251 19.525 32.3251 28.975C32.645 29.3585 32.8834 29.8032 33.0257 30.282C33.168 30.7607 33.2112 31.2634 33.1527 31.7595C33.0942 32.2555 32.9352 32.7343 32.6855 33.1668C32.4357 33.5994 32.1004 33.9764 31.7001 34.275C31.7001 34.275 37.8501 31.1 35.0251 27.125C32.2001 23.15 30.3751 21.575 41.3001 15.25Z" fill="#020438"/>
<path d="M45.3249 47.85C45.3249 47.85 46.7249 49 43.7499 49.9C38.0749 51.625 20.1749 52.15 15.1999 49.9C13.3999 49.125 16.7499 48.05 17.6999 47.825C18.263 47.6797 18.8435 47.6124 19.4249 47.625C17.4249 46.225 6.54992 50.375 13.8999 51.575C34.0249 55 50.4999 50.175 45.3249 47.85ZM38.4249 35.65C39.1601 35.1851 39.9289 34.7756 40.7249 34.425C40.7249 34.425 36.9499 35.1 33.2249 35.425C29.2192 35.8116 25.1878 35.8534 21.1749 35.55C15.2249 34.775 24.3499 32.5 24.3499 32.5C21.6039 32.4787 18.8935 33.122 16.4499 34.375C11.2999 36.95 29.1749 38.075 38.4249 35.65ZM40.6999 41.75C40.6453 41.8349 40.5778 41.9108 40.4999 41.975C52.9999 38.675 48.4499 30.35 42.4499 32.45C42.1189 32.5718 41.8317 32.7893 41.6249 33.075C41.6249 33.075 41.9749 32.95 42.6999 32.775C45.7499 32.15 49.9999 36.85 40.6999 41.75ZM29.9999 32.5C28.1499 28.325 21.8499 24.65 29.9999 18.225C40.2249 10.2 34.9999 5 34.9999 5C37.0999 13.275 27.4999 15.775 24.1499 20.925C21.8249 24.45 25.3249 28.225 29.9999 32.5Z" fill="#020438"/>
<path d="M41.025 53.3C33.4719 54.5931 25.7643 54.7112 18.175 53.65C18.175 53.65 19.325 54.6 25.275 54.975C34.3 55.55 48.15 54.675 48.5 50.4C48.5 50.4 47.85 52 41.025 53.3Z" fill="#020438"/>
</svg>
