<svg width="25" height="28" viewBox="0 0 25 28" fill="none" xmlns="http://www.w3.org/2000/svg">
<path d="M14.5 16H15.5V17.5H14.5V16ZM16.5 16H17.5V17.5H16.5V16ZM18.5 16H19.5V17.5H18.5V16ZM21.5 19.5H20.5V19C20.5 18.8674 20.4473 18.7402 20.3536 18.6464C20.2598 18.5527 20.1326 18.5 20 18.5H14C13.8674 18.5 13.7402 18.5527 13.6464 18.6464C13.5527 18.7402 13.5 18.8674 13.5 19V24C13.5 24.3978 13.658 24.7794 13.9393 25.0607C14.2206 25.342 14.6022 25.5 15 25.5H19C19.3978 25.5 19.7794 25.342 20.0607 25.0607C20.342 24.7794 20.5 24.3978 20.5 24H21.5C22.0515 24 22.5 23.5515 22.5 23V20.5C22.5 19.9485 22.0515 19.5 21.5 19.5ZM20.5 23V20.5H21.5L21.501 23H20.5Z" fill="black"/>
<path d="M4.84149 11.138C4.20516 11.138 3.61866 11.0383 3.08199 10.839C2.55299 10.632 2.08916 10.3407 1.69049 9.96501C1.29949 9.58934 0.992819 9.14851 0.770486 8.64251C0.555819 8.13651 0.448486 7.58068 0.448486 6.97501C0.448486 6.36934 0.555819 5.81351 0.770486 5.30751C0.992819 4.80151 1.30332 4.36068 1.70199 3.98501C2.10066 3.60934 2.56832 3.32184 3.10499 3.12251C3.64166 2.91551 4.23199 2.81201 4.87599 2.81201C5.58899 2.81201 6.22916 2.93084 6.79649 3.16851C7.37149 3.40618 7.85449 3.75118 8.24549 4.20351L7.04949 5.30751C6.75816 5.00084 6.43999 4.77468 6.09499 4.62901C5.74999 4.47568 5.37432 4.39901 4.96799 4.39901C4.57699 4.39901 4.22049 4.46034 3.89849 4.58301C3.57649 4.70568 3.29666 4.88201 3.05899 5.11201C2.82899 5.34201 2.64882 5.61418 2.51849 5.92851C2.39582 6.24284 2.33449 6.59168 2.33449 6.97501C2.33449 7.35068 2.39582 7.69568 2.51849 8.01001C2.64882 8.32434 2.82899 8.60034 3.05899 8.83801C3.29666 9.06801 3.57266 9.24434 3.88699 9.36701C4.20899 9.48968 4.56166 9.55101 4.94499 9.55101C5.31299 9.55101 5.66949 9.49351 6.01449 9.37851C6.36716 9.25584 6.70832 9.05268 7.03799 8.76901L8.09599 10.1145C7.65899 10.4442 7.14916 10.6972 6.56649 10.8735C5.99149 11.0498 5.41649 11.138 4.84149 11.138ZM6.39399 9.87301V6.84851H8.09599V10.1145L6.39399 9.87301Z" fill="black"/>
<path d="M13.0834 11V2.94995H14.6244L18.0514 8.63095H17.2349L20.6044 2.94995H22.1339L22.1569 11H20.4089L20.3974 5.62945H20.7194L18.0284 10.149H17.1889L14.4404 5.62945H14.8314V11H13.0834ZM4.84149 25.138C4.20516 25.138 3.61866 25.0383 3.08199 24.839C2.55299 24.632 2.08916 24.3407 1.69049 23.965C1.29949 23.5893 0.992819 23.1485 0.770486 22.6425C0.555819 22.1364 0.448486 21.5807 0.448486 20.975C0.448486 20.3693 0.555819 19.8135 0.770486 19.3075C0.992819 18.8015 1.30332 18.3607 1.70199 17.985C2.10066 17.6093 2.56832 17.3218 3.10499 17.1225C3.64166 16.9155 4.23199 16.812 4.87599 16.812C5.58899 16.812 6.22916 16.9308 6.79649 17.1685C7.37149 17.4062 7.85449 17.7512 8.24549 18.2035L7.04949 19.3075C6.75816 19.0008 6.43999 18.7747 6.09499 18.629C5.74999 18.4757 5.37432 18.399 4.96799 18.399C4.57699 18.399 4.22049 18.4603 3.89849 18.583C3.57649 18.7057 3.29666 18.882 3.05899 19.1119C2.82899 19.3419 2.64882 19.6141 2.51849 19.9284C2.39582 20.2428 2.33449 20.5917 2.33449 20.975C2.33449 21.3507 2.39582 21.6957 2.51849 22.01C2.64882 22.3243 2.82899 22.6003 3.05899 22.8379C3.29666 23.0679 3.57266 23.2443 3.88699 23.367C4.20899 23.4897 4.56166 23.551 4.94499 23.551C5.31299 23.551 5.66949 23.4935 6.01449 23.3785C6.36716 23.2558 6.70832 23.0527 7.03799 22.7689L8.09599 24.1145C7.65899 24.4442 7.14916 24.6972 6.56649 24.8735C5.99149 25.0498 5.41649 25.138 4.84149 25.138ZM6.39399 23.8729V20.8484H8.09599V24.1145L6.39399 23.8729Z" fill="#020438"/>
</svg>
